<svg width="50" height="50" viewBox="0 0 50 50" xmlns="http://www.w3.org/2000/svg">
  <!-- Pin shadow -->
  <ellipse cx="25" cy="47" rx="8" ry="3" fill="rgba(0,0,0,0.2)"/>
  
  <!-- Pin body -->
  <path d="M25 5 C15 5 7 13 7 23 C7 33 25 45 25 45 C25 45 43 33 43 23 C43 13 35 5 25 5 Z" 
        fill="#002B4D" stroke="#001A2E" stroke-width="1"/>
  
  <!-- Pin highlight -->
  <path d="M25 7 C16 7 9 14 9 23 C9 31 25 42 25 42 C25 42 41 31 41 23 C41 14 34 7 25 7 Z" 
        fill="url(#gradient)" stroke="none"/>
  
  <!-- Vostcard logo/icon -->
  <circle cx="25" cy="20" r="8" fill="white" opacity="0.9"/>
  <text x="25" y="24" text-anchor="middle" font-family="Arial, sans-serif" font-size="12" font-weight="bold" fill="#002B4D">V</text>
  
  <!-- Gradient definition -->
  <defs>
    <linearGradient id="gradient" x1="0%" y1="0%" x2="100%" y2="100%">
      <stop offset="0%" style="stop-color:#004080;stop-opacity:1" />
      <stop offset="100%" style="stop-color:#002B4D;stop-opacity:1" />
    </linearGradient>
  </defs>
</svg> 